<?xml version="1.0" standalone="no"?>
<!DOCTYPE svg PUBLIC "-//W3C//DTD SVG 20010904//EN"
 "http://www.w3.org/TR/2001/REC-SVG-20010904/DTD/svg10.dtd">
<svg version="1.0" xmlns="http://www.w3.org/2000/svg"
 width="267.000000pt" height="189.000000pt" viewBox="0 0 267.000000 189.000000"
 preserveAspectRatio="xMidYMid meet">

<g transform="translate(0.000000,189.000000) scale(0.100000,-0.100000)"
fill="#000000" stroke="none">
<path d="M1610 1335 c-8 -10 -11 -73 -8 -237 4 -252 8 -270 87 -341 103 -93
270 -65 346 57 26 43 30 59 30 121 0 62 -4 78 -30 121 -19 30 -49 60 -79 79
-42 25 -59 30 -116 30 -58 0 -74 -4 -118 -32 l-52 -32 0 112 c0 111 -7 137
-36 137 -6 0 -17 -7 -24 -15z m311 -258 c78 -52 103 -148 58 -226 -31 -55 -65
-75 -134 -79 -50 -3 -66 0 -94 20 -59 40 -76 72 -76 142 0 52 4 68 27 98 52
69 153 90 219 45z"/>
<path d="M1254 1156 c-62 -20 -110 -61 -139 -119 -91 -184 77 -382 278 -326
48 13 112 70 139 122 39 77 21 196 -40 260 -58 62 -160 89 -238 63z m169 -89
c71 -54 86 -162 32 -232 -34 -46 -73 -65 -131 -65 -175 0 -231 217 -80 312 45
28 132 21 179 -15z"/>
<path d="M2285 1161 c-128 -31 -202 -151 -174 -282 15 -71 90 -151 159 -169
177 -48 337 112 290 290 -16 62 -98 142 -162 158 -51 13 -68 14 -113 3z m136
-84 c107 -72 107 -212 0 -284 -47 -32 -125 -32 -171 0 -58 39 -75 71 -75 141
0 54 4 68 29 100 16 21 43 44 60 52 49 21 118 18 157 -9z"/>
<path d="M355 1151 c-76 -19 -146 -82 -166 -151 -6 -19 -9 -93 -7 -165 l3
-130 25 0 25 0 5 136 c5 126 7 138 32 176 35 53 85 77 153 71 65 -5 111 -37
136 -92 15 -33 19 -66 19 -162 0 -96 3 -124 15 -134 12 -10 18 -10 30 0 12 10
15 38 15 129 0 91 4 125 19 157 50 109 183 134 267 50 43 -43 54 -89 54 -223
0 -116 6 -130 43 -111 15 8 17 25 17 130 0 140 -10 183 -57 237 -88 103 -252
108 -343 11 l-27 -29 -42 39 c-59 56 -140 79 -216 61z"/>
</g>
</svg>
